<?xml version="1.0" standalone="no"?>
<!DOCTYPE svg PUBLIC "-//W3C//DTD SVG 20010904//EN"
 "http://www.w3.org/TR/2001/REC-SVG-20010904/DTD/svg10.dtd">
<svg version="1.0" xmlns="http://www.w3.org/2000/svg"
 width="500.000000pt" height="500.000000pt" viewBox="0 0 500.000000 500.000000"
 preserveAspectRatio="xMidYMid meet">

<g transform="translate(0.000000,500.000000) scale(0.100000,-0.100000)"
fill="#000000" stroke="none">
<path d="M1185 2540 l-750 -750 755 2 755 3 -640 5 -640 5 640 40 c352 22 624
41 605 43 -20 2 -293 -13 -607 -33 -399 -25 -578 -32 -594 -25 -20 8 -18 9 12
4 30 -5 1168 129 1208 142 51 16 -57 5 -544 -57 -303 -38 -559 -68 -570 -67
-11 2 216 47 505 102 611 114 623 117 617 122 -2 3 -270 -45 -594 -106 -324
-60 -594 -110 -599 -109 -5 0 262 68 594 151 331 82 602 154 602 158 0 4 -259
-57 -575 -136 -545 -137 -577 -143 -608 -130 -31 12 -50 51 -21 39 9 -3 12 2
9 16 -2 13 1 18 9 15 9 -3 12 14 11 65 -1 38 2 68 6 65 4 -2 10 0 14 5 3 6 12
8 19 5 7 -3 19 2 26 11 14 17 0 21 -17 4 -8 -8 -13 -7 -18 2 -6 8 -4 10 5 4 9
-6 11 -4 5 5 -6 9 -4 11 5 5 9 -6 11 -4 5 5 -5 9 -4 11 3 6 10 -6 1122 1025
1122 1041 0 9 -12 -1 -532 -489 -268 -252 -490 -458 -495 -458 -4 0 226 234
512 520 286 286 518 520 515 520 -3 0 -343 -337 -755 -750z m-315 -335 c-24
-25 -46 -45 -49 -45 -3 0 15 20 39 45 24 25 46 45 49 45 3 0 -15 -20 -39 -45z
m-145 -333 c-3 -3 -11 0 -18 7 -9 10 -8 11 6 5 10 -3 15 -9 12 -12z m2 -18
c-3 -3 -12 -4 -19 -1 -8 3 -5 6 6 6 11 1 17 -2 13 -5z m56 -11 c-7 -2 -21 -2
-30 0 -10 3 -4 5 12 5 17 0 24 -2 18 -5z"/>
<path d="M2090 3235 c0 -11 11 -15 40 -15 l40 0 0 -115 c0 -108 1 -115 20
-115 19 0 20 7 20 115 l0 115 40 0 c29 0 40 4 40 15 0 12 -18 15 -100 15 -82
0 -100 -3 -100 -15z"/>
<path d="M2340 3120 c0 -109 2 -130 15 -130 12 0 15 13 15 60 l0 60 70 0 70 0
0 -60 c0 -47 3 -60 15 -60 13 0 15 21 15 130 0 109 -2 130 -15 130 -12 0 -15
-13 -15 -55 l0 -55 -70 0 -70 0 0 55 c0 42 -3 55 -15 55 -13 0 -15 -21 -15
-130z"/>
<path d="M2600 3120 l0 -130 80 0 c66 0 78 2 74 15 -5 11 -21 15 -60 15 l-54
0 0 39 0 40 47 3 c36 2 49 7 51 21 3 14 -4 17 -47 17 l-51 0 0 40 0 40 55 0
c42 0 55 3 55 15 0 12 -15 15 -75 15 l-75 0 0 -130z"/>
<path d="M1387 2629 c-301 -264 -545 -484 -542 -488 7 -12 -32 -44 -44 -37
-15 10 -25 -15 -26 -61 -1 -41 7 -54 19 -34 4 5 0 12 -6 14 -10 4 -10 6 0 6 7
1 11 5 8 10 -4 5 17 26 44 46 28 21 49 40 46 43 -3 3 -15 -3 -26 -13 -11 -10
-22 -16 -24 -14 -3 2 245 206 549 454 305 247 553 451 551 453 -2 2 -243 -191
-536 -428 -292 -238 -533 -430 -535 -428 -3 2 942 835 1057 931 11 10 19 19
17 21 -2 3 -251 -212 -552 -475z m-591 -544 c-1 -8 -5 -17 -8 -21 -5 -4 -4 16
1 34 3 9 9 -1 7 -13z"/>
<path d="M1411 2528 c-299 -224 -518 -394 -511 -398 7 -4 -11 -22 -43 -44 -54
-38 -73 -72 -33 -60 12 3 3 -6 -19 -20 -22 -14 -33 -26 -25 -26 9 0 5 -6 -10
-15 -14 -8 -22 -14 -17 -15 10 0 1187 589 1187 595 0 3 -252 -121 -561 -276
-309 -154 -563 -278 -565 -276 -2 2 195 116 438 252 665 373 690 387 685 391
-2 3 -241 -129 -531 -292 -290 -163 -529 -294 -531 -292 -3 2 236 155 529 339
294 183 533 335 531 337 -2 2 -235 -141 -519 -319 -284 -177 -519 -319 -522
-317 -2 3 231 166 518 363 596 409 533 364 527 369 -2 2 -233 -153 -512 -346
-280 -192 -511 -348 -513 -345 -3 2 222 174 498 382 491 369 538 405 527 405
-3 0 -240 -176 -528 -392z m-541 -458 c-14 -11 -19 -20 -12 -20 7 0 10 -4 7
-10 -3 -5 -11 -10 -16 -10 -6 0 -7 5 -3 11 4 8 -1 9 -17 4 -19 -5 -16 -1 11
19 41 29 67 35 30 6z"/>
<path d="M2100 2635 l0 -195 109 0 c100 0 109 2 114 20 5 19 0 20 -84 20 l-89
0 0 175 0 175 -25 0 -25 0 0 -195z"/>
<path d="M2400 2636 l0 -196 25 0 25 0 -2 193 c-3 191 -3 192 -25 195 l-23 3
0 -195z"/>
<path d="M2625 2816 c-70 -30 -112 -118 -102 -214 13 -129 118 -196 250 -161
l52 14 3 98 3 97 -61 0 c-53 0 -60 -2 -60 -20 0 -16 7 -20 35 -20 l36 0 -3
-62 -3 -63 -55 -3 c-72 -4 -113 17 -134 69 -19 46 -20 89 -5 143 21 75 79 103
173 84 38 -8 50 -7 57 3 14 23 11 26 -35 38 -59 14 -114 13 -151 -3z"/>
<path d="M2907 2823 c-4 -3 -7 -91 -7 -195 l0 -188 25 0 c25 0 25 1 25 90 l0
90 100 0 100 0 0 -90 c0 -89 0 -90 25 -90 l25 0 0 196 0 195 -22 -3 c-21 -3
-23 -9 -26 -85 l-3 -83 -99 0 -100 0 0 85 c0 76 -2 85 -18 85 -10 0 -22 -3
-25 -7z"/>
<path d="M3287 2823 c-4 -3 -7 -15 -7 -25 0 -16 9 -18 65 -18 l65 0 0 -170 0
-170 25 0 25 0 0 170 0 170 60 0 c57 0 60 1 60 25 l0 25 -143 0 c-79 0 -147
-3 -150 -7z"/>
<path d="M1331 2191 c-597 -262 -604 -266 -572 -278 30 -13 63 -4 599 163 312
97 571 180 577 185 5 5 -4 5 -20 0 -157 -52 -1128 -351 -1131 -349 -2 2 126
53 284 112 655 246 872 329 869 332 -2 2 -262 -93 -577 -211 -315 -118 -575
-214 -577 -212 -1 2 257 117 574 256 318 139 580 255 582 257 20 19 -81 -23
-608 -255z"/>
<path d="M2194 2202 c-66 -31 -89 -79 -89 -182 0 -100 22 -146 83 -176 42 -21
149 -24 195 -6 27 11 27 12 27 107 l0 95 -60 0 c-53 0 -60 -2 -60 -20 0 -16 7
-20 35 -20 l36 0 -3 -62 -3 -63 -57 -3 c-70 -4 -109 15 -132 62 -33 70 -13
188 39 222 26 17 74 21 136 11 37 -6 48 -5 52 7 16 40 -130 60 -199 28z"/>
<path d="M2530 2038 c-40 -101 -75 -189 -77 -196 -4 -10 2 -13 23 -10 24 2 31
11 45 48 l17 45 90 3 91 3 18 -51 c16 -44 21 -50 46 -50 19 0 27 4 24 13 -3 6
-38 94 -77 195 -70 175 -74 182 -101 182 -27 0 -30 -7 -99 -182z m132 44 c15
-42 30 -85 33 -94 6 -16 0 -18 -65 -18 -54 0 -71 3 -68 13 3 6 18 49 34 94 16
46 31 83 34 83 3 0 17 -35 32 -78z"/>
<path d="M2860 2026 l0 -196 110 0 c103 0 110 1 110 20 0 18 -7 20 -85 20
l-85 0 -2 173 c-3 170 -3 172 -25 175 l-23 3 0 -195z"/>
<path d="M3157 2213 c-4 -3 -7 -91 -7 -195 l0 -188 115 0 c108 0 115 1 115 20
0 19 -7 20 -90 20 l-90 0 0 175 c0 163 -1 175 -18 175 -10 0 -22 -3 -25 -7z"/>
<path d="M3467 2214 c-4 -4 -7 -92 -7 -196 l0 -188 115 0 c108 0 115 1 115 20
0 19 -7 20 -90 20 l-90 0 0 65 0 64 78 3 c71 3 77 5 80 26 3 21 1 22 -77 22
l-81 0 0 60 0 60 91 0 c88 0 90 1 87 23 -3 21 -8 22 -109 25 -58 1 -108 -1
-112 -4z"/>
<path d="M3760 2026 l0 -196 25 0 c24 0 25 2 25 70 l0 70 38 0 c35 0 39 -3 83
-75 46 -75 46 -75 68 -58 l22 18 -45 60 -45 60 25 13 c49 26 70 113 40 171
-20 38 -59 53 -153 59 l-83 5 0 -197z m180 124 c25 -25 26 -80 2 -110 -14 -18
-32 -24 -75 -28 l-57 -4 0 81 0 81 55 0 c42 0 60 -5 75 -20z"/>
<path d="M4044 2204 c3 -9 33 -66 66 -127 57 -104 60 -114 60 -179 0 -66 1
-68 25 -68 24 0 25 2 25 73 0 71 2 78 60 183 33 60 60 115 60 122 0 6 -10 12
-23 12 -19 0 -31 -18 -73 -102 l-51 -103 -52 103 c-45 90 -54 102 -77 102 -20
0 -25 -4 -20 -16z"/>
</g>
</svg>
